<?xml version="1.0" encoding="UTF-8" standalone="no"?>
<!DOCTYPE svg PUBLIC "-//W3C//DTD SVG 1.1//EN"
 "http://www.w3.org/Graphics/SVG/1.1/DTD/svg11.dtd">
<!-- Generated by graphviz version 2.40.1 (20161225.0304)
 -->
<!-- Title: Grafo Pages: 1 -->
<svg width="628pt" height="548pt"
    viewBox="0.00 0.00 628.00 548.00" xmlns="http://www.w3.org/2000/svg" xmlns:xlink="http://www.w3.org/1999/xlink">
    <g id="graph0" class="graph" transform="scale(1 1) rotate(0) translate(4 544)">
        <title>Grafo</title>
        <polygon fill="#ffffff" stroke="transparent" points="-4,4 -4,-544 624,-544 624,4 -4,4"/>
        <g id="clust1" class="cluster">
            <title>cluster_item</title>
            <polygon fill="none" stroke="transparent" points="8,-8 8,-532 612,-532 612,-8 8,-8"/>
        </g>
        <!-- item -->
        <g id="node1" class="node">
            <title>item</title>
            <path fill="#9ac0cd" stroke="#9ac0cd" d="M318.5,-433.5C318.5,-433.5 443.5,-433.5 443.5,-433.5 449.5,-433.5 455.5,-439.5 455.5,-445.5 455.5,-445.5 455.5,-511.5 455.5,-511.5 455.5,-517.5 449.5,-523.5 443.5,-523.5 443.5,-523.5 318.5,-523.5 318.5,-523.5 312.5,-523.5 306.5,-517.5 306.5,-511.5 306.5,-511.5 306.5,-445.5 306.5,-445.5 306.5,-439.5 312.5,-433.5 318.5,-433.5"/>
            <text text-anchor="start" x="350.937" y="-488.5" font-family="Arial" font-weight="bold" font-size="20.00" fill="#000000">bf:Item</text>
            <text text-anchor="start" x="324.81" y="-457.5" font-family="Arial" font-size="20.00" fill="#000000">copy in hand</text>
        </g>
        <!-- sello -->
        <g id="node2" class="node">
            <title>sello</title>
            <path fill="#ee9a00" stroke="#ee9a00" d="M223,-269.5C223,-269.5 539,-269.5 539,-269.5 545,-269.5 551,-275.5 551,-281.5 551,-281.5 551,-347.5 551,-347.5 551,-353.5 545,-359.5 539,-359.5 539,-359.5 223,-359.5 223,-359.5 217,-359.5 211,-353.5 211,-347.5 211,-347.5 211,-281.5 211,-281.5 211,-275.5 217,-269.5 223,-269.5"/>
            <text text-anchor="start" x="332.109" y="-324.5" font-family="Arial" font-weight="bold" font-size="20.00" fill="#000000">arm:Stamp</text>
            <text text-anchor="start" x="228.749" y="-293.5" font-family="Arial" font-size="20.00" fill="#000000">Yale University Jan 4 1945 Library</text>
        </g>
        <!-- item&#45;&gt;sello -->
        <g id="edge1" class="edge">
            <title>item&#45;&gt;sello</title>
            <path fill="none" stroke="#000000" d="M381,-433.2521C381,-413.6241 381,-390.4539 381,-369.8149"/>
            <polygon fill="#000000" stroke="#000000" points="384.5001,-369.6002 381,-359.6002 377.5001,-369.6002 384.5001,-369.6002"/>
            <text text-anchor="middle" x="349.5098" y="-400.5232" font-family="Times,serif" font-size="14.00" fill="#000000">marked by </text>
        </g>
        <!-- contrib -->
        <g id="node3" class="node">
            <title>contrib</title>
            <path fill="#9ac0cd" stroke="#9ac0cd" d="M311.206,-143.5C311.206,-143.5 450.794,-143.5 450.794,-143.5 456.794,-143.5 462.794,-149.5 462.794,-155.5 462.794,-155.5 462.794,-183.5 462.794,-183.5 462.794,-189.5 456.794,-195.5 450.794,-195.5 450.794,-195.5 311.206,-195.5 311.206,-195.5 305.206,-195.5 299.206,-189.5 299.206,-183.5 299.206,-183.5 299.206,-155.5 299.206,-155.5 299.206,-149.5 305.206,-143.5 311.206,-143.5"/>
            <text text-anchor="start" x="313.206" y="-164.5" font-family="Arial" font-weight="bold" font-size="20.00" fill="#000000">bf:Contribution</text>
            <text text-anchor="start" x="443.236" y="-164.5" font-family="Arial" font-size="20.00" fill="#000000"> </text>
        </g>
        <!-- sello&#45;&gt;contrib -->
        <g id="edge2" class="edge">
            <title>sello&#45;&gt;contrib</title>
            <path fill="none" stroke="#000000" d="M381,-269.4159C381,-248.9336 381,-225.0275 381,-205.7355"/>
            <polygon fill="#000000" stroke="#000000" points="384.5001,-205.5434 381,-195.5434 377.5001,-205.5435 384.5001,-205.5434"/>
            <text text-anchor="middle" x="345.0312" y="-236.7221" font-family="Times,serif" font-size="14.00" fill="#000000">contribution </text>
        </g>
        <!-- org -->
        <g id="node4" class="node">
            <title>org</title>
            <path fill="#9ac0cd" stroke="#9ac0cd" d="M28.5,-16.5C28.5,-16.5 245.5,-16.5 245.5,-16.5 251.5,-16.5 257.5,-22.5 257.5,-28.5 257.5,-28.5 257.5,-94.5 257.5,-94.5 257.5,-100.5 251.5,-106.5 245.5,-106.5 245.5,-106.5 28.5,-106.5 28.5,-106.5 22.5,-106.5 16.5,-100.5 16.5,-94.5 16.5,-94.5 16.5,-28.5 16.5,-28.5 16.5,-22.5 22.5,-16.5 28.5,-16.5"/>
            <text text-anchor="start" x="69.704" y="-71.5" font-family="Arial" font-weight="bold" font-size="20.00" fill="#000000">bf:Organization</text>
            <text text-anchor="start" x="34.72" y="-40.5" font-family="Arial" font-size="20.00" fill="#000000">Yale University. Library</text>
        </g>
        <!-- contrib&#45;&gt;org -->
        <g id="edge3" class="edge">
            <title>contrib&#45;&gt;org</title>
            <path fill="none" stroke="#000000" d="M322.2454,-143.4939C300.0158,-133.6545 273.9141,-122.1013 248.4319,-110.8223"/>
            <polygon fill="#000000" stroke="#000000" points="249.641,-107.53 239.0801,-106.683 246.8077,-113.931 249.641,-107.53"/>
            <text text-anchor="middle" x="263.7664" y="-129.2944" font-family="Times,serif" font-size="14.00" fill="#000000">agent </text>
        </g>
        <!-- fecha -->
        <g id="node5" class="node">
            <title>fecha</title>
            <polygon fill="#9ac0cd" stroke="#9ac0cd" points="315.87,-35.5 315.87,-87.5 446.13,-87.5 446.13,-35.5 315.87,-35.5"/>
            <text text-anchor="middle" x="381" y="-55.5" font-family="Arial" font-size="20.00" fill="#000000">1945&#45;01&#45;04</text>
        </g>
        <!-- contrib&#45;&gt;fecha -->
        <g id="edge4" class="edge">
            <title>contrib&#45;&gt;fecha</title>
            <path fill="none" stroke="#000000" d="M381,-143.3562C381,-129.7929 381,-113.0008 381,-98.1625"/>
            <polygon fill="#000000" stroke="#000000" points="384.5001,-97.7773 381,-87.7774 377.5001,-97.7774 384.5001,-97.7773"/>
            <text text-anchor="middle" x="367.5901" y="-119.9716" font-family="Times,serif" font-size="14.00" fill="#000000">date </text>
        </g>
        <!-- rol -->
        <g id="node6" class="node">
            <title>rol</title>
            <path fill="#9ac0cd" stroke="#9ac0cd" d="M516.5,-16.5C516.5,-16.5 591.5,-16.5 591.5,-16.5 597.5,-16.5 603.5,-22.5 603.5,-28.5 603.5,-28.5 603.5,-94.5 603.5,-94.5 603.5,-100.5 597.5,-106.5 591.5,-106.5 591.5,-106.5 516.5,-106.5 516.5,-106.5 510.5,-106.5 504.5,-100.5 504.5,-94.5 504.5,-94.5 504.5,-28.5 504.5,-28.5 504.5,-22.5 510.5,-16.5 516.5,-16.5"/>
            <text text-anchor="start" x="522.827" y="-71.5" font-family="Arial" font-weight="bold" font-size="20.00" fill="#000000">bf:Role</text>
            <text text-anchor="start" x="523" y="-40.5" font-family="Arial" font-size="20.00" fill="#000000">owner</text>
        </g>
        <!-- contrib&#45;&gt;rol -->
        <g id="edge5" class="edge">
            <title>contrib&#45;&gt;rol</title>
            <path fill="none" stroke="#000000" d="M422.8785,-143.3562C444.6987,-129.7343 471.7356,-112.8558 495.5796,-97.9705"/>
            <polygon fill="#000000" stroke="#000000" points="497.5749,-100.851 504.2042,-92.5864 493.868,-94.9131 497.5749,-100.851"/>
            <text text-anchor="middle" x="451.109" y="-122.0461" font-family="Times,serif" font-size="14.00" fill="#000000">role </text>
        </g>
    </g>
</svg>