<?xml version="1.0" encoding="UTF-8" standalone="no"?>
<!DOCTYPE svg PUBLIC "-//W3C//DTD SVG 1.1//EN"
 "http://www.w3.org/Graphics/SVG/1.1/DTD/svg11.dtd">
<!-- Generated by graphviz version 2.40.1 (20161225.0304)
 -->
<!-- Title: RDFSchema Pages: 1 -->
<svg width="1252pt" height="496pt"
    viewBox="0.00 0.00 1252.00 496.00" xmlns="http://www.w3.org/2000/svg" xmlns:xlink="http://www.w3.org/1999/xlink">
    <g id="graph0" class="graph" transform="scale(1 1) rotate(0) translate(4 492)">
        <title>RDFSchema</title>
        <polygon fill="#ffffff" stroke="transparent" points="-4,4 -4,-492 1248,-492 1248,4 -4,4"/>
        <g id="clust1" class="cluster">
            <title>cluster_labels</title>
            <polygon fill="none" stroke="#000000" points="8,-8 8,-115 1236,-115 1236,-8 8,-8"/>
        </g>
        <!-- Resource -->
        <g id="node1" class="node">
            <title>Resource</title>
            <path fill="#9ac0cd" stroke="#9ac0cd" d="M433,-143.5C433,-143.5 569,-143.5 569,-143.5 575,-143.5 581,-149.5 581,-155.5 581,-155.5 581,-221.5 581,-221.5 581,-227.5 575,-233.5 569,-233.5 569,-233.5 433,-233.5 433,-233.5 427,-233.5 421,-227.5 421,-221.5 421,-221.5 421,-155.5 421,-155.5 421,-149.5 427,-143.5 433,-143.5"/>
            <text text-anchor="start" x="458.216" y="-198.5" font-family="Arial" font-weight="bold" font-size="20.00" fill="#000000">Resource</text>
            <text text-anchor="start" x="438.77" y="-167.5" font-family="Arial" font-size="20.00" fill="#000000">rdfs:Resource</text>
        </g>
        <!-- Label -->
        <g id="node5" class="node">
            <title>Label</title>
            <path fill="#ee9a00" stroke="#ee9a00" d="M479.5,-16.5C479.5,-16.5 572.5,-16.5 572.5,-16.5 578.5,-16.5 584.5,-22.5 584.5,-28.5 584.5,-28.5 584.5,-94.5 584.5,-94.5 584.5,-100.5 578.5,-106.5 572.5,-106.5 572.5,-106.5 479.5,-106.5 479.5,-106.5 473.5,-106.5 467.5,-100.5 467.5,-94.5 467.5,-94.5 467.5,-28.5 467.5,-28.5 467.5,-22.5 473.5,-16.5 479.5,-16.5"/>
            <text text-anchor="start" x="502.045" y="-71.5" font-family="Arial" font-weight="bold" font-size="20.00" fill="#000000">Label</text>
            <text text-anchor="start" x="485.939" y="-40.5" font-family="Arial" font-size="20.00" fill="#000000">rdfs:label</text>
        </g>
        <!-- Resource&#45;&gt;Label -->
        <g id="edge4" class="edge">
            <title>Resource&#45;&gt;Label</title>
            <path fill="none" stroke="#000000" d="M509.8845,-143.367C511.5772,-134.768 513.3666,-125.6774 515.1134,-116.804"/>
            <polygon fill="#000000" stroke="#000000" points="518.5625,-117.4033 517.0599,-106.9156 511.6943,-116.0513 518.5625,-117.4033"/>
        </g>
        <!-- Comment -->
        <g id="node6" class="node">
            <title>Comment</title>
            <path fill="#ee9a00" stroke="#ee9a00" d="M264.5,-16.5C264.5,-16.5 397.5,-16.5 397.5,-16.5 403.5,-16.5 409.5,-22.5 409.5,-28.5 409.5,-28.5 409.5,-94.5 409.5,-94.5 409.5,-100.5 403.5,-106.5 397.5,-106.5 397.5,-106.5 264.5,-106.5 264.5,-106.5 258.5,-106.5 252.5,-100.5 252.5,-94.5 252.5,-94.5 252.5,-28.5 252.5,-28.5 252.5,-22.5 258.5,-16.5 264.5,-16.5"/>
            <text text-anchor="start" x="288.167" y="-71.5" font-family="Arial" font-weight="bold" font-size="20.00" fill="#000000">Comment</text>
            <text text-anchor="start" x="270.94" y="-40.5" font-family="Arial" font-size="20.00" fill="#000000">rdfs:comment</text>
        </g>
        <!-- Resource&#45;&gt;Comment -->
        <g id="edge5" class="edge">
            <title>Resource&#45;&gt;Comment</title>
            <path fill="none" stroke="#000000" d="M440.5857,-143.367C427.3873,-133.507 413.3236,-123.0006 399.825,-112.9163"/>
            <polygon fill="#000000" stroke="#000000" points="401.6121,-109.8825 391.506,-106.7016 397.4226,-115.4905 401.6121,-109.8825"/>
        </g>
        <!-- Class -->
        <g id="node2" class="node">
            <title>Class</title>
            <path fill="#9ac0cd" stroke="#9ac0cd" d="M451,-270.5C451,-270.5 551,-270.5 551,-270.5 557,-270.5 563,-276.5 563,-282.5 563,-282.5 563,-348.5 563,-348.5 563,-354.5 557,-360.5 551,-360.5 551,-360.5 451,-360.5 451,-360.5 445,-360.5 439,-354.5 439,-348.5 439,-348.5 439,-282.5 439,-282.5 439,-276.5 445,-270.5 451,-270.5"/>
            <text text-anchor="start" x="476.003" y="-325.5" font-family="Arial" font-weight="bold" font-size="20.00" fill="#000000">Class</text>
            <text text-anchor="start" x="456.557" y="-294.5" font-family="Arial" font-size="20.00" fill="#000000">rdfs:Class</text>
        </g>
        <!-- Class&#45;&gt;Resource -->
        <g id="edge1" class="edge">
            <title>Class&#45;&gt;Resource</title>
            <path fill="none" stroke="#000000" d="M501,-270.367C501,-261.8605 501,-252.8729 501,-244.0903"/>
            <polygon fill="#000000" stroke="#000000" points="504.5001,-243.9156 501,-233.9156 497.5001,-243.9156 504.5001,-243.9156"/>
            <text text-anchor="middle" x="455.9004" y="-256.1485" font-family="Times,serif" font-size="14.00" fill="#000000">rdfs:subClassOf</text>
        </g>
        <!-- SubClass -->
        <g id="node9" class="node">
            <title>SubClass</title>
            <path fill="#ee9a00" stroke="#ee9a00" d="M28,-16.5C28,-16.5 182,-16.5 182,-16.5 188,-16.5 194,-22.5 194,-28.5 194,-28.5 194,-94.5 194,-94.5 194,-100.5 188,-106.5 182,-106.5 182,-106.5 28,-106.5 28,-106.5 22,-106.5 16,-100.5 16,-94.5 16,-94.5 16,-28.5 16,-28.5 16,-22.5 22,-16.5 28,-16.5"/>
            <text text-anchor="start" x="51.658" y="-71.5" font-family="Arial" font-weight="bold" font-size="20.00" fill="#000000">SubClassOf</text>
            <text text-anchor="start" x="33.881" y="-40.5" font-family="Arial" font-size="20.00" fill="#000000">rdfs:subClassOf</text>
        </g>
        <!-- Class&#45;&gt;SubClass -->
        <g id="edge8" class="edge">
            <title>Class&#45;&gt;SubClass</title>
            <path fill="none" stroke="#000000" d="M438.6894,-275.5331C369.7938,-231.3425 258.6662,-160.0637 183.7831,-112.0326"/>
            <polygon fill="#000000" stroke="#000000" points="185.5981,-109.0387 175.2912,-106.5857 181.8188,-114.9308 185.5981,-109.0387"/>
        </g>
        <!-- Property -->
        <g id="node3" class="node">
            <title>Property</title>
            <path fill="#ee9a00" stroke="#ee9a00" d="M711,-397.5C711,-397.5 827,-397.5 827,-397.5 833,-397.5 839,-403.5 839,-409.5 839,-409.5 839,-475.5 839,-475.5 839,-481.5 833,-487.5 827,-487.5 827,-487.5 711,-487.5 711,-487.5 705,-487.5 699,-481.5 699,-475.5 699,-475.5 699,-409.5 699,-409.5 699,-403.5 705,-397.5 711,-397.5"/>
            <text text-anchor="start" x="731.217" y="-452.5" font-family="Arial" font-weight="bold" font-size="20.00" fill="#000000">Property</text>
            <text text-anchor="start" x="716.771" y="-421.5" font-family="Arial" font-size="20.00" fill="#000000">rdf:Property</text>
        </g>
        <!-- Property&#45;&gt;Resource -->
        <g id="edge11" class="edge">
            <title>Property&#45;&gt;Resource</title>
            <path fill="none" stroke="#000000" d="M723.6684,-397.2885C688.2088,-362.1755 637.4623,-312.476 592,-270 581.7744,-260.4461 570.7745,-250.4027 560.0787,-240.757"/>
            <polygon fill="#000000" stroke="#000000" points="562.136,-237.9 552.3598,-233.8163 557.4556,-243.1052 562.136,-237.9"/>
            <text text-anchor="middle" x="684.1998" y="-318.8895" font-family="Times,serif" font-size="14.00" fill="#000000">rdfs:subClassOf</text>
        </g>
        <!-- Property&#45;&gt;Class -->
        <g id="edge10" class="edge">
            <title>Property&#45;&gt;Class</title>
            <path fill="none" stroke="#000000" d="M698.9362,-409.2981C660.0262,-390.8594 611.722,-367.969 572.573,-349.417"/>
            <polygon fill="#000000" stroke="#000000" points="573.879,-346.1629 563.3434,-345.0434 570.8813,-352.4886 573.879,-346.1629"/>
            <text text-anchor="middle" x="609.0806" y="-381.4178" font-family="Times,serif" font-size="14.00" fill="#000000">rdf:type</text>
        </g>
        <!-- Domain -->
        <g id="node7" class="node">
            <title>Domain</title>
            <path fill="#ee9a00" stroke="#ee9a00" d="M916,-16.5C916,-16.5 1032,-16.5 1032,-16.5 1038,-16.5 1044,-22.5 1044,-28.5 1044,-28.5 1044,-94.5 1044,-94.5 1044,-100.5 1038,-106.5 1032,-106.5 1032,-106.5 916,-106.5 916,-106.5 910,-106.5 904,-100.5 904,-94.5 904,-94.5 904,-28.5 904,-28.5 904,-22.5 910,-16.5 916,-16.5"/>
            <text text-anchor="start" x="939.556" y="-71.5" font-family="Arial" font-weight="bold" font-size="20.00" fill="#000000">Domain</text>
            <text text-anchor="start" x="921.77" y="-40.5" font-family="Arial" font-size="20.00" fill="#000000">rdfs:domain</text>
        </g>
        <!-- Property&#45;&gt;Domain -->
        <g id="edge6" class="edge">
            <title>Property&#45;&gt;Domain</title>
            <path fill="none" stroke="#000000" d="M793.3212,-397.2981C831.2341,-326.8356 904.28,-191.0772 944.9196,-115.547"/>
            <polygon fill="#000000" stroke="#000000" points="948.0543,-117.1076 949.7104,-106.643 941.89,-113.7908 948.0543,-117.1076"/>
        </g>
        <!-- Range -->
        <g id="node8" class="node">
            <title>Range</title>
            <path fill="#ee9a00" stroke="#ee9a00" d="M1114,-16.5C1114,-16.5 1216,-16.5 1216,-16.5 1222,-16.5 1228,-22.5 1228,-28.5 1228,-28.5 1228,-94.5 1228,-94.5 1228,-100.5 1222,-106.5 1216,-106.5 1216,-106.5 1114,-106.5 1114,-106.5 1108,-106.5 1102,-100.5 1102,-94.5 1102,-94.5 1102,-28.5 1102,-28.5 1102,-22.5 1108,-16.5 1114,-16.5"/>
            <text text-anchor="start" x="1135.545" y="-71.5" font-family="Arial" font-weight="bold" font-size="20.00" fill="#000000">Range</text>
            <text text-anchor="start" x="1119.989" y="-40.5" font-family="Arial" font-size="20.00" fill="#000000">rdfs:range</text>
        </g>
        <!-- Property&#45;&gt;Range -->
        <g id="edge7" class="edge">
            <title>Property&#45;&gt;Range</title>
            <path fill="none" stroke="#000000" d="M833.849,-397.3112C849.0569,-385.9413 864.9216,-373.424 879,-361 969.8553,-280.8214 1065.0439,-176.3997 1119.4792,-114.4095"/>
            <polygon fill="#000000" stroke="#000000" points="1122.2812,-116.5225 1126.2366,-106.6937 1117.0152,-111.9106 1122.2812,-116.5225"/>
        </g>
        <!-- SubProperty -->
        <g id="node10" class="node">
            <title>SubProperty</title>
            <path fill="#ee9a00" stroke="#ee9a00" d="M654.5,-16.5C654.5,-16.5 833.5,-16.5 833.5,-16.5 839.5,-16.5 845.5,-22.5 845.5,-28.5 845.5,-28.5 845.5,-94.5 845.5,-94.5 845.5,-100.5 839.5,-106.5 833.5,-106.5 833.5,-106.5 654.5,-106.5 654.5,-106.5 648.5,-106.5 642.5,-100.5 642.5,-94.5 642.5,-94.5 642.5,-28.5 642.5,-28.5 642.5,-22.5 648.5,-16.5 654.5,-16.5"/>
            <text text-anchor="start" x="678.372" y="-71.5" font-family="Arial" font-weight="bold" font-size="20.00" fill="#000000">SubPropertyOf</text>
            <text text-anchor="start" x="660.595" y="-40.5" font-family="Arial" font-size="20.00" fill="#000000">rdfs:subPropertyOf</text>
        </g>
        <!-- Property&#45;&gt;SubProperty -->
        <g id="edge9" class="edge">
            <title>Property&#45;&gt;SubProperty</title>
            <path fill="none" stroke="#000000" d="M766.034,-397.2981C761.4387,-327.2653 752.6109,-192.7304 747.6375,-116.9354"/>
            <polygon fill="#000000" stroke="#000000" points="751.1095,-116.3924 746.9621,-106.643 744.1245,-116.8508 751.1095,-116.3924"/>
        </g>
        <!-- Literal -->
        <g id="node4" class="node">
            <title>Literal</title>
            <path fill="#9ac0cd" stroke="#9ac0cd" d="M373.5,-397.5C373.5,-397.5 478.5,-397.5 478.5,-397.5 484.5,-397.5 490.5,-403.5 490.5,-409.5 490.5,-409.5 490.5,-475.5 490.5,-475.5 490.5,-481.5 484.5,-487.5 478.5,-487.5 478.5,-487.5 373.5,-487.5 373.5,-487.5 367.5,-487.5 361.5,-481.5 361.5,-475.5 361.5,-475.5 361.5,-409.5 361.5,-409.5 361.5,-403.5 367.5,-397.5 373.5,-397.5"/>
            <text text-anchor="start" x="399.277" y="-452.5" font-family="Arial" font-weight="bold" font-size="20.00" fill="#000000">Literal</text>
            <text text-anchor="start" x="379.831" y="-421.5" font-family="Arial" font-size="20.00" fill="#000000">rdfs:Literal</text>
        </g>
        <!-- Literal&#45;&gt;Resource -->
        <g id="edge3" class="edge">
            <title>Literal&#45;&gt;Resource</title>
            <path fill="none" stroke="#000000" d="M409.9587,-397.2669C399.9165,-361.2522 391.9636,-310.3661 410,-270 414.6842,-259.5165 421.4573,-249.8221 429.2262,-241.0518"/>
            <polygon fill="#000000" stroke="#000000" points="431.9571,-243.2577 436.2822,-233.5858 426.8697,-238.4495 431.9571,-243.2577"/>
            <text text-anchor="middle" x="354.5784" y="-318.0029" font-family="Times,serif" font-size="14.00" fill="#000000">rdfs:subClassOf</text>
        </g>
        <!-- Literal&#45;&gt;Class -->
        <g id="edge2" class="edge">
            <title>Literal&#45;&gt;Class</title>
            <path fill="none" stroke="#000000" d="M452.6534,-397.367C457.9499,-388.3982 463.5623,-378.8945 469.0156,-369.6603"/>
            <polygon fill="#000000" stroke="#000000" points="472.1084,-371.306 474.1798,-360.9156 466.081,-367.7465 472.1084,-371.306"/>
            <text text-anchor="middle" x="441.1963" y="-383.4459" font-family="Times,serif" font-size="14.00" fill="#000000">rdf:type</text>
        </g>
    </g>
</svg>