<?xml version="1.0" encoding="UTF-8" standalone="no"?>
<!DOCTYPE svg PUBLIC "-//W3C//DTD SVG 1.1//EN"
 "http://www.w3.org/Graphics/SVG/1.1/DTD/svg11.dtd">
<!-- Generated by graphviz version 2.40.1 (20161225.0304)
 -->
<!-- Title: Grafo Pages: 1 -->
<svg width="1266pt" height="512pt"
    viewBox="0.00 0.00 1266.00 512.00" xmlns="http://www.w3.org/2000/svg" xmlns:xlink="http://www.w3.org/1999/xlink">
    <g id="graph0" class="graph" transform="scale(1 1) rotate(0) translate(4 508)">
        <title>Grafo</title>
        <polygon fill="#ffffff" stroke="transparent" points="-4,4 -4,-508 1262,-508 1262,4 -4,4"/>
        <g id="clust1" class="cluster">
            <title>cluster_superobra</title>
            <polygon fill="none" stroke="transparent" points="8,-135 8,-496 714,-496 714,-135 8,-135"/>
        </g>
        <g id="clust2" class="cluster">
            <title>cluster_obra</title>
            <polygon fill="none" stroke="transparent" points="729,-262 729,-369 1229,-369 1229,-262 729,-262"/>
        </g>
        <g id="clust3" class="cluster">
            <title>cluster_manif</title>
            <polygon fill="none" stroke="transparent" points="722,-135 722,-242 1250,-242 1250,-135 722,-135"/>
        </g>
        <g id="clust4" class="cluster">
            <title>cluster_item</title>
            <polygon fill="none" stroke="transparent" points="888,-8 888,-115 1084,-115 1084,-8 888,-8"/>
        </g>
        <!-- super -->
        <g id="node1" class="node">
            <title>super</title>
            <path fill="#ffa07a" stroke="#ffa07a" d="M283.5,-397.5C283.5,-397.5 650.5,-397.5 650.5,-397.5 656.5,-397.5 662.5,-403.5 662.5,-409.5 662.5,-409.5 662.5,-475.5 662.5,-475.5 662.5,-481.5 656.5,-487.5 650.5,-487.5 650.5,-487.5 283.5,-487.5 283.5,-487.5 277.5,-487.5 271.5,-481.5 271.5,-475.5 271.5,-475.5 271.5,-409.5 271.5,-409.5 271.5,-403.5 277.5,-397.5 283.5,-397.5"/>
            <text text-anchor="start" x="433.056" y="-452.5" font-family="Arial" font-weight="bold" font-size="20.00" fill="#000000">bf:Work</text>
            <text text-anchor="start" x="304.691" y="-422.5" font-family="Arial" font-size="20.00" fill="#000000">Their eyes were watching God </text>
            <text text-anchor="start" x="580.299" y="-422.5" font-family="Arial" font-weight="bold" font-size="20.00" fill="#000000">[Text]</text>
        </g>
        <!-- contrib -->
        <g id="node2" class="node">
            <title>contrib</title>
            <path fill="#ffa07a" stroke="#ffa07a" d="M28.206,-289.5C28.206,-289.5 197.794,-289.5 197.794,-289.5 203.794,-289.5 209.794,-295.5 209.794,-301.5 209.794,-301.5 209.794,-329.5 209.794,-329.5 209.794,-335.5 203.794,-341.5 197.794,-341.5 197.794,-341.5 28.206,-341.5 28.206,-341.5 22.206,-341.5 16.206,-335.5 16.206,-329.5 16.206,-329.5 16.206,-301.5 16.206,-301.5 16.206,-295.5 22.206,-289.5 28.206,-289.5"/>
            <text text-anchor="start" x="45.206" y="-310.5" font-family="Arial" font-weight="bold" font-size="20.00" fill="#000000">bf:Contribution</text>
            <text text-anchor="start" x="175.236" y="-310.5" font-family="Arial" font-size="20.00" fill="#000000"> </text>
        </g>
        <!-- super&#45;&gt;contrib -->
        <g id="edge1" class="edge">
            <title>super&#45;&gt;contrib</title>
            <path fill="none" stroke="#000000" d="M299.847,-397.4331C272.5443,-388.7984 244.7746,-379.2281 219,-369 202.5026,-362.4534 185.1117,-354.2585 169.2945,-346.2646"/>
            <polygon fill="#000000" stroke="#000000" points="170.6778,-343.0408 160.1821,-341.5952 167.4855,-349.2705 170.6778,-343.0408"/>
            <text text-anchor="middle" x="176.9935" y="-373.1952" font-family="Times,serif" font-size="14.00" fill="#000000">bf:contribution</text>
        </g>
        <!-- super2 -->
        <g id="node5" class="node">
            <title>super2</title>
            <path fill="#ffa07a" stroke="#ffa07a" d="M240,-270.5C240,-270.5 694,-270.5 694,-270.5 700,-270.5 706,-276.5 706,-282.5 706,-282.5 706,-348.5 706,-348.5 706,-354.5 700,-360.5 694,-360.5 694,-360.5 240,-360.5 240,-360.5 234,-360.5 228,-354.5 228,-348.5 228,-348.5 228,-282.5 228,-282.5 228,-276.5 234,-270.5 240,-270.5"/>
            <text text-anchor="start" x="432.556" y="-325.5" font-family="Arial" font-weight="bold" font-size="20.00" fill="#000000">bf:Work</text>
            <text text-anchor="start" x="260.851" y="-295.5" font-family="Arial" font-size="20.00" fill="#000000">Their eyes were watching God </text>
            <text text-anchor="start" x="536.459" y="-295.5" font-family="Arial" font-weight="bold" font-size="20.00" fill="#000000">[Motion picture]</text>
        </g>
        <!-- super&#45;&gt;super2 -->
        <g id="edge4" class="edge">
            <title>super&#45;&gt;super2</title>
            <path fill="none" stroke="#000000" d="M467,-397.367C467,-388.8605 467,-379.8729 467,-371.0903"/>
            <polygon fill="#000000" stroke="#000000" points="470.5001,-370.9156 467,-360.9156 463.5001,-370.9156 470.5001,-370.9156"/>
            <text text-anchor="middle" x="420.3534" y="-383.1485" font-family="Times,serif" font-size="14.00" fill="#000000">bf:hasDerivative</text>
        </g>
        <!-- obra2 -->
        <g id="node6" class="node">
            <title>obra2</title>
            <path fill="#cd853f" stroke="#cd853f" d="M749.5,-270.5C749.5,-270.5 1208.5,-270.5 1208.5,-270.5 1214.5,-270.5 1220.5,-276.5 1220.5,-282.5 1220.5,-282.5 1220.5,-348.5 1220.5,-348.5 1220.5,-354.5 1214.5,-360.5 1208.5,-360.5 1208.5,-360.5 749.5,-360.5 749.5,-360.5 743.5,-360.5 737.5,-354.5 737.5,-348.5 737.5,-348.5 737.5,-282.5 737.5,-282.5 737.5,-276.5 743.5,-270.5 749.5,-270.5"/>
            <text text-anchor="start" x="945.056" y="-325.5" font-family="Arial" font-weight="bold" font-size="20.00" fill="#000000">bf:Work</text>
            <text text-anchor="start" x="770.571" y="-295.5" font-family="Arial" font-size="20.00" fill="#000000">Their eyes were watching God </text>
            <text text-anchor="start" x="1046.179" y="-295.5" font-family="Arial" font-weight="bold" font-size="20.00" fill="#000000">[Text in English]</text>
        </g>
        <!-- super&#45;&gt;obra2 -->
        <g id="edge5" class="edge">
            <title>super&#45;&gt;obra2</title>
            <path fill="none" stroke="#000000" d="M648.5931,-397.4564C693.599,-386.2928 741.965,-374.2958 787.4311,-363.0181"/>
            <polygon fill="#000000" stroke="#000000" points="788.5268,-366.3524 797.39,-360.5478 786.8415,-359.5583 788.5268,-366.3524"/>
            <text text-anchor="middle" x="674.5672" y="-383.2555" font-family="Times,serif" font-size="14.00" fill="#000000">bf:hasExpression</text>
        </g>
        <!-- pers -->
        <g id="node3" class="node">
            <title>pers</title>
            <path fill="#ffa07a" stroke="#ffa07a" d="M28,-143.5C28,-143.5 250,-143.5 250,-143.5 256,-143.5 262,-149.5 262,-155.5 262,-155.5 262,-221.5 262,-221.5 262,-227.5 256,-233.5 250,-233.5 250,-233.5 28,-233.5 28,-233.5 22,-233.5 16,-227.5 16,-221.5 16,-221.5 16,-155.5 16,-155.5 16,-149.5 22,-143.5 28,-143.5"/>
            <text text-anchor="start" x="96.208" y="-198.5" font-family="Arial" font-weight="bold" font-size="20.00" fill="#000000">bf:Person</text>
            <text text-anchor="start" x="48.988" y="-167.5" font-family="Arial" font-size="20.00" fill="#000000">Hurston, Zora Neale</text>
        </g>
        <!-- contrib&#45;&gt;pers -->
        <g id="edge2" class="edge">
            <title>contrib&#45;&gt;pers</title>
            <path fill="none" stroke="#000000" d="M118.3242,-289.4932C121.0432,-276.2119 124.4602,-259.5213 127.7287,-243.5558"/>
            <polygon fill="#000000" stroke="#000000" points="131.1603,-244.2444 129.7371,-233.7456 124.3025,-242.8404 131.1603,-244.2444"/>
            <text text-anchor="middle" x="101.0218" y="-266.178" font-family="Times,serif" font-size="14.00" fill="#000000">bf:agent</text>
        </g>
        <!-- rol -->
        <g id="node4" class="node">
            <title>rol</title>
            <path fill="#ffa07a" stroke="#ffa07a" d="M292.5,-143.5C292.5,-143.5 397.5,-143.5 397.5,-143.5 403.5,-143.5 409.5,-149.5 409.5,-155.5 409.5,-155.5 409.5,-221.5 409.5,-221.5 409.5,-227.5 403.5,-233.5 397.5,-233.5 397.5,-233.5 292.5,-233.5 292.5,-233.5 286.5,-233.5 280.5,-227.5 280.5,-221.5 280.5,-221.5 280.5,-155.5 280.5,-155.5 280.5,-149.5 286.5,-143.5 292.5,-143.5"/>
            <text text-anchor="start" x="313.827" y="-198.5" font-family="Arial" font-weight="bold" font-size="20.00" fill="#000000">bf:Role</text>
            <text text-anchor="start" x="314" y="-167.5" font-family="Arial" font-size="20.00" fill="#000000">author</text>
        </g>
        <!-- contrib&#45;&gt;rol -->
        <g id="edge3" class="edge">
            <title>contrib&#45;&gt;rol</title>
            <path fill="none" stroke="#000000" d="M162.1196,-289.4198C179.8583,-280.3456 200.155,-270.3546 219,-262 241.6368,-251.9644 249.2292,-253.7969 271,-242 272.7771,-241.037 274.5608,-240.0373 276.346,-239.0068"/>
            <polygon fill="#000000" stroke="#000000" points="278.5078,-241.7901 285.2607,-233.6262 274.8906,-235.7971 278.5078,-241.7901"/>
            <text text-anchor="middle" x="204.9035" y="-264.2503" font-family="Times,serif" font-size="14.00" fill="#000000">bf:role</text>
        </g>
        <!-- manif3 -->
        <g id="node7" class="node">
            <title>manif3</title>
            <path fill="#b2dfee" stroke="#b2dfee" d="M742.5,-143.5C742.5,-143.5 1229.5,-143.5 1229.5,-143.5 1235.5,-143.5 1241.5,-149.5 1241.5,-155.5 1241.5,-155.5 1241.5,-221.5 1241.5,-221.5 1241.5,-227.5 1235.5,-233.5 1229.5,-233.5 1229.5,-233.5 742.5,-233.5 742.5,-233.5 736.5,-233.5 730.5,-227.5 730.5,-221.5 730.5,-221.5 730.5,-155.5 730.5,-155.5 730.5,-149.5 736.5,-143.5 742.5,-143.5"/>
            <text text-anchor="start" x="937.589" y="-198.5" font-family="Arial" font-weight="bold" font-size="20.00" fill="#000000">bf:Instance</text>
            <text text-anchor="start" x="763.676" y="-168.5" font-family="Arial" font-size="20.00" fill="#000000">Their eyes were watching God </text>
            <text text-anchor="start" x="1039.284" y="-168.5" font-family="Arial" font-weight="bold" font-size="20.00" fill="#000000">[First edition, 1937]</text>
        </g>
        <!-- obra2&#45;&gt;manif3 -->
        <g id="edge6" class="edge">
            <title>obra2&#45;&gt;manif3</title>
            <path fill="none" stroke="#000000" d="M981.4876,-270.367C981.9565,-261.8605 982.4519,-252.8729 982.936,-244.0903"/>
            <polygon fill="#000000" stroke="#000000" points="986.441,-244.0931 983.4968,-233.9156 979.4516,-243.7078 986.441,-244.0931"/>
            <text text-anchor="middle" x="942.0778" y="-256.1485" font-family="Times,serif" font-size="14.00" fill="#000000">bf:hasInstance</text>
        </g>
        <!-- item -->
        <g id="node8" class="node">
            <title>item</title>
            <path fill="#9ac0cd" stroke="#9ac0cd" d="M908.5,-16.5C908.5,-16.5 1063.5,-16.5 1063.5,-16.5 1069.5,-16.5 1075.5,-22.5 1075.5,-28.5 1075.5,-28.5 1075.5,-94.5 1075.5,-94.5 1075.5,-100.5 1069.5,-106.5 1063.5,-106.5 1063.5,-106.5 908.5,-106.5 908.5,-106.5 902.5,-106.5 896.5,-100.5 896.5,-94.5 896.5,-94.5 896.5,-28.5 896.5,-28.5 896.5,-22.5 902.5,-16.5 908.5,-16.5"/>
            <text text-anchor="start" x="955.937" y="-71.5" font-family="Arial" font-weight="bold" font-size="20.00" fill="#000000">bf:Item</text>
            <text text-anchor="start" x="929.81" y="-40.5" font-family="Arial" font-size="20.00" fill="#000000">copy in hand</text>
        </g>
        <!-- manif3&#45;&gt;item -->
        <g id="edge7" class="edge">
            <title>manif3&#45;&gt;item</title>
            <path fill="none" stroke="#000000" d="M986,-143.367C986,-134.8605 986,-125.8729 986,-117.0903"/>
            <polygon fill="#000000" stroke="#000000" points="989.5001,-116.9156 986,-106.9156 982.5001,-116.9156 989.5001,-116.9156"/>
            <text text-anchor="middle" x="956.0666" y="-129.1485" font-family="Times,serif" font-size="14.00" fill="#000000">bf:hasItem</text>
        </g>
    </g>
</svg>