<?xml version="1.0" encoding="UTF-8" standalone="no"?>
<!DOCTYPE svg PUBLIC "-//W3C//DTD SVG 1.1//EN"
 "http://www.w3.org/Graphics/SVG/1.1/DTD/svg11.dtd">
<!-- Generated by graphviz version 2.40.1 (20161225.0304)
 -->
<!-- Title: G Pages: 1 -->
<svg width="944pt" height="273pt"
    viewBox="0.00 0.00 944.28 272.60" xmlns="http://www.w3.org/2000/svg" xmlns:xlink="http://www.w3.org/1999/xlink">
    <g id="graph0" class="graph" transform="scale(1 1) rotate(0) translate(4 268.6)">
        <title>G</title>
        <polygon fill="#ffffff" stroke="transparent" points="-4,4 -4,-268.6 940.28,-268.6 940.28,4 -4,4"/>
        <!-- A -->
        <g id="node1" class="node">
            <title>A</title>
            <path fill="#9ac0cd" stroke="#9ac0cd" d="M405.418,-212.1C405.418,-212.1 739.554,-212.1 739.554,-212.1 745.554,-212.1 751.554,-218.1 751.554,-224.1 751.554,-224.1 751.554,-252.1 751.554,-252.1 751.554,-258.1 745.554,-264.1 739.554,-264.1 739.554,-264.1 405.418,-264.1 405.418,-264.1 399.418,-264.1 393.418,-258.1 393.418,-252.1 393.418,-252.1 393.418,-224.1 393.418,-224.1 393.418,-218.1 399.418,-212.1 405.418,-212.1"/>
            <text text-anchor="middle" x="572.486" y="-232.1" font-family="Arial" font-size="20.00" fill="#000000">http://example.org/5607075#Instance</text>
        </g>
        <!-- C -->
        <g id="node2" class="node">
            <title>C</title>
            <path fill="#9ac0cd" stroke="#9ac0cd" d="M437.692,-106.3C437.692,-106.3 707.28,-106.3 707.28,-106.3 713.28,-106.3 719.28,-112.3 719.28,-118.3 719.28,-118.3 719.28,-146.3 719.28,-146.3 719.28,-152.3 713.28,-158.3 707.28,-158.3 707.28,-158.3 437.692,-158.3 437.692,-158.3 431.692,-158.3 425.692,-152.3 425.692,-146.3 425.692,-146.3 425.692,-118.3 425.692,-118.3 425.692,-112.3 431.692,-106.3 437.692,-106.3"/>
            <text text-anchor="middle" x="572.486" y="-126.3" font-family="Arial" font-size="20.00" fill="#000000">ProvisionActivity :: Publication</text>
        </g>
        <!-- A&#45;&gt;C -->
        <g id="edge1" class="edge">
            <title>A&#45;&gt;C</title>
            <path fill="none" stroke="#ee9a00" d="M572.486,-211.9472C572.486,-198.9763 572.486,-183.0941 572.486,-168.9343"/>
            <polygon fill="#ee9a00" stroke="#ee9a00" points="575.9861,-168.5186 572.486,-158.5186 568.9861,-168.5187 575.9861,-168.5186"/>
            <text text-anchor="middle" x="629.6466" y="-181" font-family="Times,serif" font-size="14.00" fill="#000000">bf:provisionActivity</text>
        </g>
        <!-- D -->
        <g id="node3" class="node">
            <title>D</title>
            <path fill="#9ac0cd" stroke="#9ac0cd" d="M12,-.5C12,-.5 354.972,-.5 354.972,-.5 360.972,-.5 366.972,-6.5 366.972,-12.5 366.972,-12.5 366.972,-40.5 366.972,-40.5 366.972,-46.5 360.972,-52.5 354.972,-52.5 354.972,-52.5 12,-52.5 12,-52.5 6,-52.5 0,-46.5 0,-40.5 0,-40.5 0,-12.5 0,-12.5 0,-6.5 6,-.5 12,-.5"/>
            <text text-anchor="middle" x="183.486" y="-20.5" font-family="Arial" font-size="20.00" fill="#000000">http://id.loc.gov/vocabulary/countries/it</text>
        </g>
        <!-- C&#45;&gt;D -->
        <g id="edge2" class="edge">
            <title>C&#45;&gt;D</title>
            <path fill="none" stroke="#ee9a00" d="M476.8277,-106.2829C419.8244,-90.7792 347.3943,-71.0797 288.7693,-55.1349"/>
            <polygon fill="#ee9a00" stroke="#ee9a00" points="289.6798,-51.7554 279.1117,-52.5082 287.8426,-58.5101 289.6798,-51.7554"/>
            <text text-anchor="middle" x="424.0288" y="-75.2" font-family="Times,serif" font-size="14.00" fill="#000000">bf:place</text>
        </g>
        <!-- M -->
        <g id="node4" class="node">
            <title>M</title>
            <polygon fill="#9ac0cd" stroke="#9ac0cd" points="526.3445,-52.5 384.6275,-52.5 384.6275,-.5 526.3445,-.5 526.3445,-52.5"/>
            <text text-anchor="middle" x="455.486" y="-20.5" font-family="Arial" font-size="20.00" fill="#000000">Novara [etc.]</text>
        </g>
        <!-- C&#45;&gt;M -->
        <g id="edge3" class="edge">
            <title>C&#45;&gt;M</title>
            <path fill="none" stroke="#ee9a00" d="M543.5646,-106.1472C527.9551,-92.0319 508.5327,-74.4687 491.9014,-59.4295"/>
            <polygon fill="#ee9a00" stroke="#ee9a00" points="494.2448,-56.8298 484.4801,-52.7186 489.5498,-62.0218 494.2448,-56.8298"/>
            <text text-anchor="middle" x="568.1382" y="-75.2" font-family="Times,serif" font-size="14.00" fill="#000000">bflc:simplePlace</text>
        </g>
        <!-- N -->
        <g id="node5" class="node">
            <title>N</title>
            <polygon fill="#9ac0cd" stroke="#9ac0cd" points="834.7902,-52.5 544.1818,-52.5 544.1818,-.5 834.7902,-.5 834.7902,-52.5"/>
            <text text-anchor="middle" x="689.486" y="-20.5" font-family="Arial" font-size="20.00" fill="#000000">Istituto geografico de Agostini</text>
        </g>
        <!-- C&#45;&gt;N -->
        <g id="edge4" class="edge">
            <title>C&#45;&gt;N</title>
            <path fill="none" stroke="#ee9a00" d="M601.4074,-106.1472C617.0169,-92.0319 636.4393,-74.4687 653.0706,-59.4295"/>
            <polygon fill="#ee9a00" stroke="#ee9a00" points="655.4222,-62.0218 660.4919,-52.7186 650.7272,-56.8298 655.4222,-62.0218"/>
            <text text-anchor="middle" x="687.0856" y="-75.2" font-family="Times,serif" font-size="14.00" fill="#000000">bflc:simpleAgent</text>
        </g>
        <!-- O -->
        <g id="node6" class="node">
            <title>O</title>
            <polygon fill="#9ac0cd" stroke="#9ac0cd" points="936.075,-52.5 852.897,-52.5 852.897,-.5 936.075,-.5 936.075,-52.5"/>
            <text text-anchor="middle" x="894.486" y="-20.5" font-family="Arial" font-size="20.00" fill="#000000">[1922]</text>
        </g>
        <!-- C&#45;&gt;O -->
        <g id="edge5" class="edge">
            <title>C&#45;&gt;O</title>
            <path fill="none" stroke="#ee9a00" d="M682.9669,-106.2205C732.9288,-92.8491 792.1488,-74.769 843.486,-53 843.5807,-52.9598 843.6755,-52.9196 843.7704,-52.8792"/>
            <polygon fill="#ee9a00" stroke="#ee9a00" points="845.0209,-56.1543 852.7108,-48.8662 842.1544,-49.7681 845.0209,-56.1543"/>
            <text text-anchor="middle" x="837.1929" y="-75.2" font-family="Times,serif" font-size="14.00" fill="#000000">bflc:simpleDate</text>
        </g>
    </g>
</svg>