<?xml version="1.0" encoding="UTF-8" standalone="no"?>
<!DOCTYPE svg PUBLIC "-//W3C//DTD SVG 1.1//EN"
 "http://www.w3.org/Graphics/SVG/1.1/DTD/svg11.dtd">
<!-- Generated by graphviz version 2.40.1 (20161225.0304)
 -->
<!-- Title: G Pages: 1 -->
<svg width="1004pt" height="313pt"
    viewBox="0.00 0.00 1003.94 313.00" xmlns="http://www.w3.org/2000/svg" xmlns:xlink="http://www.w3.org/1999/xlink">
    <g id="graph0" class="graph" transform="scale(1 1) rotate(0) translate(4 309)">
        <title>G</title>
        <polygon fill="#ffffff" stroke="transparent" points="-4,4 -4,-309 999.9353,-309 999.9353,4 -4,4"/>
        <!-- BIBFRAME -->
        <g id="node1" class="node">
            <title>BIBFRAME</title>
            <polygon fill="#9ac0cd" stroke="#000000" points="118.3362,-154 -.1122,-154 -.1122,-118 118.3362,-118 118.3362,-154"/>
            <text text-anchor="middle" x="59.112" y="-130" font-family="Sans-Serif" font-size="20.00" fill="#000000">BIBFRAME</text>
        </g>
        <!-- RDF -->
        <g id="node2" class="node">
            <title>RDF</title>
            <ellipse fill="#ee9a00" stroke="#000000" cx="869.9189" cy="-229" rx="38.6327" ry="22.7556"/>
            <text text-anchor="middle" x="869.9189" y="-223" font-family="Sans-Serif" font-size="20.00" fill="#000000">RDF</text>
        </g>
        <!-- BIBFRAME&#45;&gt;RDF -->
        <g id="edge1" class="edge">
            <title>BIBFRAME&#45;&gt;RDF</title>
            <path fill="none" stroke="#000000" d="M62.334,-154.0712C70.4132,-192.941 95.3759,-281 155.724,-281 155.724,-281 155.724,-281 706.4026,-281 751.0031,-281 799.3648,-263.2136 831.8327,-248.4455"/>
            <polygon fill="#000000" stroke="#000000" points="833.385,-251.5835 840.9642,-244.1803 830.4226,-245.2412 833.385,-251.5835"/>
            <text text-anchor="middle" x="429.9443" y="-287" font-family="Sans-Serif" font-size="20.00" fill="#000000">uses</text>
        </g>
        <!-- RDA -->
        <g id="node3" class="node">
            <title>RDA</title>
            <ellipse fill="#ee9a00" stroke="#000000" cx="429.9443" cy="-152" rx="41.3277" ry="22.7556"/>
            <text text-anchor="middle" x="429.9443" y="-146" font-family="Sans-Serif" font-size="20.00" fill="#000000">RDA</text>
        </g>
        <!-- BIBFRAME&#45;&gt;RDA -->
        <g id="edge2" class="edge">
            <title>BIBFRAME&#45;&gt;RDA</title>
            <path fill="none" stroke="#000000" d="M98.6893,-154.1432C115.8504,-160.4611 136.4047,-166 155.724,-166 155.724,-166 155.724,-166 321.81,-166 341.2961,-166 362.5951,-163.7364 381.0984,-161.0296"/>
            <polygon fill="#000000" stroke="#000000" points="381.7122,-164.4764 391.0612,-159.4918 380.6443,-157.5584 381.7122,-164.4764"/>
            <text text-anchor="middle" x="238.767" y="-172" font-family="Sans-Serif" font-size="20.00" fill="#000000">codifies</text>
        </g>
        <!-- IFLALRM -->
        <g id="node4" class="node">
            <title>IFLALRM</title>
            <ellipse fill="#ee9a00" stroke="#000000" cx="869.9189" cy="-25" rx="126.0327" ry="22.7556"/>
            <text text-anchor="middle" x="869.9189" y="-19" font-family="Sans-Serif" font-size="20.00" fill="#000000">IFLA LRM (FRBR)</text>
        </g>
        <!-- BIBFRAME&#45;&gt;IFLALRM -->
        <g id="edge3" class="edge">
            <title>BIBFRAME&#45;&gt;IFLALRM</title>
            <path fill="none" stroke="#000000" d="M62.9804,-117.9403C72.0792,-80.9456 98.5234,0 155.724,0 155.724,0 155.724,0 706.4026,0 730.0233,0 755.3451,-2.5807 778.8366,-6.0837"/>
            <polygon fill="#000000" stroke="#000000" points="778.3618,-9.5519 788.782,-7.6367 779.4418,-2.6357 778.3618,-9.5519"/>
            <text text-anchor="middle" x="429.9443" y="-6" font-family="Sans-Serif" font-size="20.00" fill="#000000">is inspired by</text>
        </g>
        <!-- MARC21 -->
        <g id="node5" class="node">
            <title>MARC21</title>
            <ellipse fill="#ee9a00" stroke="#000000" cx="429.9443" cy="-75" rx="70.7689" ry="22.7556"/>
            <text text-anchor="middle" x="429.9443" y="-69" font-family="Sans-Serif" font-size="20.00" fill="#000000">MARC 21</text>
        </g>
        <!-- BIBFRAME&#45;&gt;MARC21 -->
        <g id="edge4" class="edge">
            <title>BIBFRAME&#45;&gt;MARC21</title>
            <path fill="none" stroke="#000000" d="M68.2048,-117.7872C82.7737,-91.4889 114.0038,-46 155.724,-46 155.724,-46 155.724,-46 321.81,-46 339.6014,-46 358.4947,-49.7076 375.4273,-54.4714"/>
            <polygon fill="#000000" stroke="#000000" points="374.5636,-57.8663 385.1472,-57.3783 376.5693,-51.1597 374.5636,-57.8663"/>
            <text text-anchor="middle" x="238.767" y="-52" font-family="Sans-Serif" font-size="20.00" fill="#000000">translates</text>
        </g>
        <!-- BIBFRAME&#45;&gt;MARC21 -->
        <g id="edge5" class="edge">
            <title>BIBFRAME&#45;&gt;MARC21</title>
            <path fill="none" stroke="#000000" d="M98.6893,-117.8568C115.8504,-111.5389 136.4047,-106 155.724,-106 155.724,-106 155.724,-106 321.81,-106 340.3394,-106 359.9874,-101.7418 377.3795,-96.3819"/>
            <polygon fill="#000000" stroke="#000000" points="378.9193,-99.5606 387.3336,-93.1225 376.7409,-92.9082 378.9193,-99.5606"/>
            <text text-anchor="middle" x="238.767" y="-112" font-family="Sans-Serif" font-size="20.00" fill="#000000">replaces</text>
        </g>
        <!-- OWL -->
        <g id="node6" class="node">
            <title>OWL</title>
            <ellipse fill="#ee9a00" stroke="#000000" cx="429.9443" cy="-222" rx="43.5222" ry="22.7556"/>
            <text text-anchor="middle" x="429.9443" y="-216" font-family="Sans-Serif" font-size="20.00" fill="#000000">OWL</text>
        </g>
        <!-- BIBFRAME&#45;&gt;OWL -->
        <g id="edge6" class="edge">
            <title>BIBFRAME&#45;&gt;OWL</title>
            <path fill="none" stroke="#000000" d="M68.2048,-154.2128C82.7737,-180.5111 114.0038,-226 155.724,-226 155.724,-226 155.724,-226 321.81,-226 339.6341,-226 359.0995,-225.4506 376.5414,-224.759"/>
            <polygon fill="#000000" stroke="#000000" points="376.7051,-228.2553 386.5493,-224.3384 376.4112,-221.2614 376.7051,-228.2553"/>
            <text text-anchor="middle" x="238.767" y="-232" font-family="Sans-Serif" font-size="20.00" fill="#000000">uses in part</text>
        </g>
        <!-- RDA&#45;&gt;RDF -->
        <g id="edge8" class="edge">
            <title>RDA&#45;&gt;RDF</title>
            <path fill="none" stroke="#000000" d="M467.9997,-160.9481C488.6175,-165.0436 514.6088,-169 538.0786,-169 538.0786,-169 538.0786,-169 706.4026,-169 752.5024,-169 801.6848,-190.2781 833.9298,-207.4916"/>
            <polygon fill="#000000" stroke="#000000" points="832.5132,-210.7065 842.9643,-212.4459 835.8791,-204.5687 832.5132,-210.7065"/>
            <text text-anchor="middle" x="622.2406" y="-175" font-family="Sans-Serif" font-size="20.00" fill="#000000">uses in part</text>
        </g>
        <!-- RDA&#45;&gt;IFLALRM -->
        <g id="edge10" class="edge">
            <title>RDA&#45;&gt;IFLALRM</title>
            <path fill="none" stroke="#000000" d="M460.1777,-136.6057C473.5253,-128.8827 488.8186,-118.6814 500.5786,-107 522.3569,-85.3672 507.3822,-49 538.0786,-49 538.0786,-49 538.0786,-49 706.4026,-49 729.2719,-49 753.7515,-46.6735 776.6217,-43.4692"/>
            <polygon fill="#000000" stroke="#000000" points="777.2741,-46.911 786.6587,-41.9937 776.2559,-39.9854 777.2741,-46.911"/>
            <text text-anchor="middle" x="622.2406" y="-55" font-family="Sans-Serif" font-size="20.00" fill="#000000">implements</text>
        </g>
        <!-- AACR2 -->
        <g id="node7" class="node">
            <title>AACR2</title>
            <ellipse fill="#228b22" stroke="#000000" cx="869.9189" cy="-109" rx="57.8324" ry="22.7556"/>
            <text text-anchor="middle" x="869.9189" y="-103" font-family="Sans-Serif" font-size="20.00" fill="#000000">AACR2</text>
        </g>
        <!-- RDA&#45;&gt;AACR2 -->
        <g id="edge9" class="edge">
            <title>RDA&#45;&gt;AACR2</title>
            <path fill="none" stroke="#000000" d="M456.7811,-134.758C477.9835,-122.7951 508.784,-109 538.0786,-109 538.0786,-109 538.0786,-109 706.4026,-109 737.7644,-109 772.5097,-109 801.8778,-109"/>
            <polygon fill="#000000" stroke="#000000" points="802.0271,-112.5001 812.0271,-109 802.027,-105.5001 802.0271,-112.5001"/>
            <text text-anchor="middle" x="622.2406" y="-115" font-family="Sans-Serif" font-size="20.00" fill="#000000">replaces</text>
        </g>
        <!-- OWL&#45;&gt;RDF -->
        <g id="edge7" class="edge">
            <title>OWL&#45;&gt;RDF</title>
            <path fill="none" stroke="#000000" d="M472.7905,-226.0517C492.6344,-227.5997 516.5382,-229 538.0786,-229 538.0786,-229 538.0786,-229 706.4026,-229 744.8266,-229 788.3294,-229 820.7993,-229"/>
            <polygon fill="#000000" stroke="#000000" points="820.9335,-232.5001 830.9335,-229 820.9334,-225.5001 820.9335,-232.5001"/>
            <text text-anchor="middle" x="622.2406" y="-235" font-family="Sans-Serif" font-size="20.00" fill="#000000">formalizes</text>
        </g>
    </g>
</svg>