<?xml version="1.0" encoding="UTF-8" standalone="no"?>
<!DOCTYPE svg PUBLIC "-//W3C//DTD SVG 1.1//EN"
 "http://www.w3.org/Graphics/SVG/1.1/DTD/svg11.dtd">
<!-- Generated by graphviz version 2.40.1 (20161225.0304)
 -->
<!-- Title: G Pages: 1 -->
<svg width="1193pt" height="272pt"
    viewBox="0.00 0.00 1193.07 271.60" xmlns="http://www.w3.org/2000/svg" xmlns:xlink="http://www.w3.org/1999/xlink">
    <g id="graph0" class="graph" transform="scale(1 1) rotate(0) translate(4 267.6)">
        <title>G</title>
        <polygon fill="#ffffff" stroke="transparent" points="-4,4 -4,-267.6 1189.069,-267.6 1189.069,4 -4,4"/>
        <!-- A -->
        <g id="node1" class="node">
            <title>A</title>
            <path fill="#9ac0cd" stroke="#9ac0cd" stroke-width="0" d="M478.528,-211.1C478.528,-211.1 812.664,-211.1 812.664,-211.1 818.664,-211.1 824.664,-217.1 824.664,-223.1 824.664,-223.1 824.664,-251.1 824.664,-251.1 824.664,-257.1 818.664,-263.1 812.664,-263.1 812.664,-263.1 478.528,-263.1 478.528,-263.1 472.528,-263.1 466.528,-257.1 466.528,-251.1 466.528,-251.1 466.528,-223.1 466.528,-223.1 466.528,-217.1 472.528,-211.1 478.528,-211.1"/>
            <text text-anchor="middle" x="645.596" y="-231.1" font-family="Arial" font-size="20.00" fill="#000000">http://example.org/5607075#Instance</text>
        </g>
        <!-- B -->
        <g id="node2" class="node">
            <title>B</title>
            <path fill="#9ac0cd" stroke="#9ac0cd" stroke-width="0" d="M386.594,-105.3C386.594,-105.3 450.598,-105.3 450.598,-105.3 456.598,-105.3 462.598,-111.3 462.598,-117.3 462.598,-117.3 462.598,-145.3 462.598,-145.3 462.598,-151.3 456.598,-157.3 450.598,-157.3 450.598,-157.3 386.594,-157.3 386.594,-157.3 380.594,-157.3 374.594,-151.3 374.594,-145.3 374.594,-145.3 374.594,-117.3 374.594,-117.3 374.594,-111.3 380.594,-105.3 386.594,-105.3"/>
            <text text-anchor="middle" x="418.596" y="-125.3" font-family="Arial" font-size="20.00" fill="#000000">bf:Title</text>
        </g>
        <!-- A&#45;&gt;B -->
        <g id="edge1" class="edge">
            <title>A&#45;&gt;B</title>
            <path fill="none" stroke="#ee9a00" d="M586.9554,-211.008C555.2814,-196.7671 515.3329,-178.5703 471.8253,-157.8588"/>
            <polygon fill="#ee9a00" stroke="#ee9a00" points="473.3162,-154.6922 462.7839,-153.5428 470.3006,-161.0094 473.3162,-154.6922"/>
            <text text-anchor="middle" x="562.2601" y="-180" font-family="Times,serif" font-size="14.00" fill="#000000">bf:title</text>
        </g>
        <!-- C -->
        <g id="node3" class="node">
            <title>C</title>
            <path fill="#9ac0cd" stroke="#9ac0cd" stroke-width="0" d="M492.995,-105.3C492.995,-105.3 798.197,-105.3 798.197,-105.3 804.197,-105.3 810.197,-111.3 810.197,-117.3 810.197,-117.3 810.197,-145.3 810.197,-145.3 810.197,-151.3 804.197,-157.3 798.197,-157.3 798.197,-157.3 492.995,-157.3 492.995,-157.3 486.995,-157.3 480.995,-151.3 480.995,-145.3 480.995,-145.3 480.995,-117.3 480.995,-117.3 480.995,-111.3 486.995,-105.3 492.995,-105.3"/>
            <text text-anchor="middle" x="645.596" y="-125.3" font-family="Arial" font-size="20.00" fill="#000000">http://example.org/5607075#Work</text>
        </g>
        <!-- A&#45;&gt;C -->
        <g id="edge2" class="edge">
            <title>A&#45;&gt;C</title>
            <path fill="none" stroke="#ee9a00" d="M645.596,-210.9472C645.596,-197.9763 645.596,-182.0941 645.596,-167.9343"/>
            <polygon fill="#ee9a00" stroke="#ee9a00" points="649.0961,-167.5186 645.596,-157.5186 642.0961,-167.5187 649.0961,-167.5186"/>
            <text text-anchor="middle" x="683.69" y="-180" font-family="Times,serif" font-size="14.00" fill="#000000">bf:instanceOf</text>
        </g>
        <!-- F -->
        <g id="node6" class="node">
            <title>F</title>
            <polygon fill="#9ac0cd" stroke="#9ac0cd" stroke-width="2" points="1185.042,-157.3 828.15,-157.3 828.15,-105.3 1185.042,-105.3 1185.042,-157.3"/>
            <text text-anchor="middle" x="1006.596" y="-125.3" font-family="Arial" font-size="20.00" fill="#000000">Edito sotto gli auspici del Ministero ...</text>
        </g>
        <!-- A&#45;&gt;F -->
        <g id="edge3" class="edge">
            <title>A&#45;&gt;F</title>
            <path fill="none" stroke="#ee9a00" d="M734.3689,-211.0829C787.051,-195.6431 853.9316,-176.0421 908.2172,-160.1323"/>
            <polygon fill="#ee9a00" stroke="#ee9a00" points="909.2414,-163.4795 917.8534,-157.3082 907.2726,-156.762 909.2414,-163.4795"/>
            <text text-anchor="middle" x="922.4747" y="-180" font-family="Times,serif" font-size="14.00" fill="#000000">bf:responsibilityStatement</text>
        </g>
        <!-- D -->
        <g id="node4" class="node">
            <title>D</title>
            <polygon fill="#9ac0cd" stroke="#9ac0cd" stroke-width="2" points="259.2881,-52 -.0961,-52 -.0961,0 259.2881,0 259.2881,-52"/>
            <text text-anchor="middle" x="129.596" y="-20" font-family="Arial" font-size="20.00" fill="#000000">Grande atlante geografico</text>
        </g>
        <!-- B&#45;&gt;D -->
        <g id="edge4" class="edge">
            <title>B&#45;&gt;D</title>
            <path fill="none" stroke="#ee9a00" d="M374.3885,-115.1926C330.9072,-99.3497 263.5187,-74.796 210.4463,-55.4586"/>
            <polygon fill="#ee9a00" stroke="#ee9a00" points="211.6438,-52.1699 201.0498,-52.0349 209.2473,-58.7469 211.6438,-52.1699"/>
            <text text-anchor="middle" x="326.589" y="-74.2" font-family="Times,serif" font-size="14.00" fill="#000000">bf:mainTitle</text>
        </g>
        <!-- E -->
        <g id="node5" class="node">
            <title>E</title>
            <polygon fill="#9ac0cd" stroke="#9ac0cd" stroke-width="2" points="1138.0441,-52 277.1479,-52 277.1479,0 1138.0441,0 1138.0441,-52"/>
            <text text-anchor="middle" x="707.596" y="-20" font-family="Arial" font-size="20.00" fill="#000000">102 tavole di geografia fisica, politica ed economica con 250 carte e cartine ed indice dei nomi</text>
        </g>
        <!-- B&#45;&gt;E -->
        <g id="edge5" class="edge">
            <title>B&#45;&gt;E</title>
            <path fill="none" stroke="#ee9a00" d="M462.6254,-108.7016C465.6402,-107.3352 468.65,-106.0212 471.596,-104.8 516.3916,-86.2317 567.2818,-68.7955 610.3075,-55.0691"/>
            <polygon fill="#ee9a00" stroke="#ee9a00" points="611.4536,-58.3775 619.9286,-52.0195 609.3385,-51.7047 611.4536,-58.3775"/>
            <text text-anchor="middle" x="589.9824" y="-74.2" font-family="Times,serif" font-size="14.00" fill="#000000">bf:subtitle</text>
        </g>
    </g>
</svg>